<?xml version="1.0" encoding="UTF-8"?>
<svg width="128px" height="128px" viewBox="0 0 128 128" version="1.1" xmlns="http://www.w3.org/2000/svg" xmlns:xlink="http://www.w3.org/1999/xlink">
    <!-- Generator: Sketch 47 (45396) - http://www.bohemiancoding.com/sketch -->
    <title>logo</title>
    <desc>Created with Sketch.</desc>
    <defs></defs>
    <g id="Page-1" stroke="none" stroke-width="1" fill="none" fill-rule="evenodd">
        <g id="logo" transform="translate(0.000000, -3.000000)" fill-rule="nonzero">
            <circle id="Oval" fill="#263740" cx="64" cy="67" r="64"></circle>
            <path d="M3.902,89.052 C12.889,113.533 36.404,131 64,131 C64.688,131 65.368,130.97 66.051,130.948 C57.064,106.467 33.549,89 5.953,89 C5.266,89 4.585,89.03 3.902,89.052 Z" id="Shape" fill="#E6E6E6"></path>
            <g id="Group" transform="translate(33.000000, 0.000000)">
                <circle id="Oval" fill="#263740" cx="58.292" cy="28.67" r="10"></circle>
                <g id="period" transform="translate(50.942654, 37.577746) rotate(-148.000000) translate(-50.942654, -37.577746) translate(38.442654, 1.077746)">
                    <path d="M24.0247586,53.8304921 C24.0247586,60.8328952 18.6452487,72.0742758 12.011682,72.0742758 L12.011682,72.0742758 C5.37811531,72.0742758 0,60.8328952 0,53.8304921 L0,6.14087388 C0,-0.861529193 5.37811531,0.037532856 12.011682,0.037532856 L12.011682,0.037532856 C18.6452487,0.037532856 24.0247586,-0.861184196 24.0247586,6.14087388 L24.0247586,53.8304921 Z" id="Shape" fill="#F4F3EA"></path>
                    <g id="Group" fill="#DDDBCE">
                        <path d="M23.9331213,5.45512175 C23.9262571,5.33730803 23.9169904,5.22295942 23.9063509,5.10999685 C23.9015459,5.04693186 23.8957113,4.98421338 23.89022,4.92114839 C23.8778644,4.81095791 23.8613902,4.70596509 23.8456025,4.60027926 C20.5974552,3.36462124 17.2590434,1.85556609 14.1334223,0.0339580723 C13.4820081,0.0433138677 12.812747,0.0537091959 12.1297574,0.0537091959 C11.1419966,0.0537091959 10.183752,0.0329185394 9.26703581,0.0225232112 C10.3152017,0.730098553 11.414506,1.4283181 12.5639191,2.10782606 C16.2520628,4.28772639 20.1941824,6.03206247 23.95543,7.41429461 L23.95543,6.18383426 C23.9561164,5.93919753 23.9468497,5.69663988 23.9331213,5.45512175 Z" id="Shape"></path>
                        <path d="M23.9561164,18.8647487 L23.9561164,16.0930076 C20.5782354,14.8136893 17.0973911,13.2415691 13.8585104,11.3267497 C8.50236207,8.16102569 4.25409833,4.53444218 1.15696373,1.43871343 C0.812723262,2.36147207 0.564581827,3.33620734 0.429013546,4.35044487 C3.52374567,7.30514367 7.56505327,10.6039278 12.5642623,13.5582801 C16.252406,15.738527 20.1948689,17.482863 23.9561164,18.8647487 Z" id="Shape"></path>
                        <path d="M0.305457645,12.0204646 L0.305457645,15.6830852 C3.41563425,18.6675839 7.49881358,22.0145331 12.5646055,25.0090807 C16.2527492,27.188981 20.1948689,28.9329706 23.9561164,30.3148562 L23.9561164,27.5434617 C20.5782354,26.2637968 17.0973911,24.6916767 13.8585104,22.7772037 C7.99132113,19.3100152 3.45613313,15.2911813 0.305457645,12.0204646 Z" id="Shape"></path>
                        <path d="M0.305457645,23.4712651 L0.305457645,27.1335393 C3.41563425,30.118038 7.49881358,33.4653337 12.5646055,36.4595347 C16.2527492,38.6394351 20.1948689,40.3834246 23.9561164,41.7656568 L23.9561164,38.9939158 C20.5782354,37.7145974 17.0973911,36.1424772 13.8585104,34.2280043 C7.99132113,30.7604693 3.45613313,26.7416354 0.305457645,23.4712651 Z" id="Shape"></path>
                        <path d="M0.305457645,34.9220657 L0.305457645,38.5839933 C3.41563425,41.5684921 7.49881358,44.9157878 12.5646055,47.9099888 C16.2527492,50.0898891 20.1948689,51.8342252 23.9561164,53.2164574 L23.9561164,50.4443698 C20.5782354,49.1653979 17.0973911,47.5929313 13.8585104,45.6784583 C7.99132113,42.2112699 3.45613313,38.192436 0.305457645,34.9220657 Z" id="Shape"></path>
                        <path d="M0.305457645,46.3725197 L0.305457645,50.0347939 C3.41563425,53.0192926 7.49881358,56.3662418 12.5646055,59.3604429 C15.4860162,61.0871069 18.5659902,62.5386412 21.5900209,63.7555876 C21.9514219,62.9697008 22.2760994,62.1637164 22.561994,61.3521877 C19.628571,60.1778622 16.6536195,58.7810766 13.8588536,57.1289124 C7.99132113,53.6620704 3.45613313,49.64289 0.305457645,46.3725197 Z" id="Shape"></path>
                        <path d="M0.83228628,58.3624913 C1.22457627,60.0908879 1.82553844,61.8802704 2.59295787,63.5805996 C5.33555567,65.9822669 8.65612052,68.501748 12.5646055,70.8115899 C13.206753,71.1913659 13.8581672,71.5548559 14.5136999,71.9079506 C15.3820233,71.5441141 16.2136232,70.9896966 17.0009488,70.2980607 C15.9363088,69.7581967 14.8853972,69.1868001 13.8588536,68.5800595 C8.30982079,65.3006799 3.95378884,61.5285618 0.83228628,58.3624913 Z" id="Shape"></path>
                    </g>
                </g>
                <path d="M43.598,75.167 C42.998,76.09 41.753,76.355 40.83,75.756 L22.38,63.776 C21.457,63.175 21.192,61.93 21.791,61.007 L23.971,57.653 C24.571,56.731 25.815,56.465 26.739,57.065 L45.188,69.047 C46.112,69.647 46.376,70.891 45.778,71.816 L43.598,75.167 Z" id="Shape" fill="#DDDBCE"></path>
                <path d="M29.59,63.688 C28.99,64.613 28.254,65.785 27.486,67.09 L36.565,72.986 C37.446,71.753 38.216,70.601 38.817,69.677 C39.418,68.753 40.153,67.581 40.921,66.277 L31.844,60.381 C30.961,61.613 30.189,62.763 29.59,63.688 Z" id="Shape" fill="#CAC8BA"></path>
                <path d="M24.057,64.863 C17.44,75.051 9.108,95.694 13.508,98.551 C17.906,101.408 33.374,85.403 39.992,75.21 L24.057,64.863 Z" id="Shape" fill="#FFD464"></path>
                <path d="M25.734,65.952 C19.117,76.14 16.569,86.232 20.042,88.487 C23.516,90.743 31.697,84.309 38.314,74.122 L25.734,65.952 Z" id="Shape" fill="#F2B255"></path>
                <path d="M54.5621288,88.3951639 C53.5686456,85.665591 48.8669873,82.981275 48.8669873,82.981275 C48.8669873,82.981275 46.9908132,88.059776 47.9842805,90.7893049 C48.6454127,92.6057508 50.6538273,93.5422168 52.4701852,92.8811166 C54.2865431,92.2200164 55.2232611,90.2116098 54.5621288,88.3951639 Z" id="Shape" fill="#910000" transform="translate(51.234119, 88.037209) rotate(-23.000000) translate(-51.234119, -88.037209) "></path>
                <path d="M40.9034005,99.2154564 C40.9034005,96.3107056 37.4033771,92.1802118 37.4033771,92.1802118 C37.4033771,92.1802118 33.9034005,96.3107524 33.9034005,99.2154564 C33.9034005,101.148478 35.4704026,102.715386 37.4033303,102.715386 C39.3362579,102.715386 40.9034005,101.148478 40.9034005,99.2154564 Z" id="Shape" fill="#910000" transform="translate(37.403400, 97.447799) rotate(-16.000000) translate(-37.403400, -97.447799) "></path>
                <path d="M11.5314394,77.3722378 C11.5314394,74.467487 8.03141602,70.3369932 8.03141602,70.3369932 C8.03141602,70.3369932 4.53143943,74.4675338 4.53143943,77.3722378 C4.53143943,79.3052591 6.09844153,80.8721676 8.03136922,80.8721676 C9.9642969,80.8721676 11.5314394,79.3052591 11.5314394,77.3722378 Z" id="Shape" fill="#910000" transform="translate(8.031439, 75.604580) rotate(57.000000) translate(-8.031439, -75.604580) "></path>
                <path d="M9.82400695,65.571938 C9.82400695,62.6671872 6.32398355,58.5366934 6.32398355,58.5366934 C6.32398355,58.5366934 2.82400695,62.667234 2.82400695,65.571938 C2.82400695,67.5049593 4.39100906,69.0718678 6.32393674,69.0718678 C8.25686443,69.0718678 9.82400695,67.5049593 9.82400695,65.571938 Z" id="Shape" fill="#910000" transform="translate(6.324007, 63.804281) rotate(83.000000) translate(-6.324007, -63.804281) "></path>
            </g>
            <g id="Group" transform="translate(15.000000, 93.000000)">
                <ellipse id="Oval" fill="#CCCCCC" transform="translate(7.936165, 6.483927) rotate(-157.882589) translate(-7.936165, -6.483927) " cx="7.9361653" cy="6.4839271" rx="5.99990763" ry="4.49993072"></ellipse>
                <path d="M8.26,10.669 C5.19,9.422 3.459,6.544 4.395,4.241 C4.93,2.923 6.235,2.097 7.819,1.851 C5.381,1.501 3.145,2.396 2.395,4.241 C1.459,6.544 3.19,9.422 6.26,10.669 C7.573,11.202 8.906,11.33 10.089,11.148 C9.482,11.06 8.869,10.917 8.26,10.669 Z" id="Shape" fill="#B3B3B3"></path>
            </g>
            <g id="Group" transform="translate(34.000000, 99.000000)">
                <ellipse id="Oval" fill="#CCCCCC" transform="translate(4.969738, 4.898442) rotate(-134.493545) translate(-4.969738, -4.898442) " cx="4.9697384" cy="4.8984423" rx="3.9358377" ry="2.95087831"></ellipse>
                <path d="M4.051,7.457 C2.53,5.908 2.238,3.725 3.401,2.582 C4.065,1.927 5.065,1.771 6.084,2.035 C4.708,1.19 3.129,1.143 2.197,2.058 C1.034,3.203 1.326,5.384 2.848,6.934 C3.499,7.597 4.27,8.023 5.03,8.219 C4.686,8.012 4.354,7.766 4.051,7.457 Z" id="Shape" fill="#B3B3B3"></path>
            </g>
            <g id="Group" transform="translate(29.000000, 108.000000)">
                <ellipse id="Oval" fill="#CCCCCC" transform="translate(7.913114, 6.859346) rotate(-164.229315) translate(-7.913114, -6.859346) " cx="7.9131144" cy="6.8593458" rx="5.96826557" ry="4.47619918"></ellipse>
                <path d="M8.711,10.956 C5.542,10.06 3.516,7.404 4.19,5.025 C4.572,3.663 5.772,2.707 7.311,2.289 C4.864,2.211 2.749,3.339 2.21,5.245 C1.537,7.623 3.564,10.28 6.735,11.175 C8.091,11.559 9.423,11.538 10.574,11.229 C9.967,11.209 9.342,11.135 8.711,10.956 Z" id="Shape" fill="#B3B3B3"></path>
            </g>
            <path d="M27.953,24 C27.953,28 26.953,29 22.953,29 C26.953,29 27.953,30 27.953,34 C27.953,30 28.953,29 32.953,29 C28.953,29 27.953,28 27.953,24 Z" id="Shape" fill="#FFD464"></path>
            <path d="M14.953,53 C14.953,57 13.953,58 9.953,58 C13.953,58 14.953,59 14.953,63 C14.953,59 15.953,58 19.953,58 C15.953,58 14.953,57 14.953,53 Z" id="Shape" fill="#FFD464"></path>
            <path d="M81.953,104 C81.953,108 80.953,109 76.953,109 C80.953,109 81.953,110 81.953,114 C81.953,110 82.953,109 86.953,109 C82.953,109 81.953,108 81.953,104 Z" id="Shape" fill="#FFD464"></path>
            <path d="M117.953,81 C117.953,85 116.953,86 112.953,86 C116.953,86 117.953,87 117.953,91 C117.953,87 118.953,86 122.953,86 C118.953,86 117.953,85 117.953,81 Z" id="Shape" fill="#FFD464"></path>
            <path d="M114.953,46 C114.953,50 113.953,51 109.953,51 C113.953,51 114.953,52 114.953,56 C114.953,52 115.953,51 119.953,51 C115.953,51 114.953,50 114.953,46 Z" id="Shape" fill="#FFD464"></path>
            <path d="M64.953,10 C64.953,14 63.953,15 59.953,15 C63.953,15 64.953,16 64.953,20 C64.953,16 65.953,15 69.953,15 C65.953,15 64.953,14 64.953,10 Z" id="Shape" fill="#FFD464"></path>
            <path d="M47.953,31 C47.953,35 46.953,36 42.953,36 C46.953,36 47.953,37 47.953,41 C47.953,37 48.953,36 52.953,36 C48.953,36 47.953,35 47.953,31 Z" id="Shape" fill="#FFD464"></path>
        </g>
    </g>
</svg>