<?xml version="1.0" encoding="UTF-8"?>
<svg width="1160px" height="1160px" viewBox="0 0 1160 1160" version="1.1" xmlns="http://www.w3.org/2000/svg" xmlns:xlink="http://www.w3.org/1999/xlink">
    <!-- Generator: Sketch 47 (45396) - http://www.bohemiancoding.com/sketch -->
    <title>logo</title>
    <desc>Created with Sketch.</desc>
    <defs></defs>
    <g id="Page-1" stroke="none" stroke-width="1" fill="none" fill-rule="evenodd">
        <g id="logo" transform="translate(0.000000, -16.000000)" fill-rule="nonzero">
            <circle id="Oval" fill="#263740" cx="580" cy="596" r="580"></circle>
            <path d="M35,795.471714 C116.412106,1017.54936 329.431544,1176 579.420248,1176 C585.652754,1176 591.812789,1175.72786 598,1175.52829 C516.587894,953.450643 303.568456,795 53.5797519,795 C47.356305,795 41.1872114,795.272143 35,795.471714 Z" id="Shape" fill="#E6E6E6"></path>
            <g id="Group" transform="translate(304.000000, 0.000000)">
                <ellipse id="Oval" fill="#263740" cx="521.924219" cy="248.748708" rx="90.4502438" ry="90.478202"></ellipse>
                <g id="period" transform="translate(456.911095, 334.674800) rotate(-148.000000) translate(-456.911095, -334.674800) translate(347.911095, 8.174800)">
                    <path d="M217.304527,487.048614 C217.304527,550.405098 168.646729,652.115089 108.645957,652.115089 L108.645957,652.115089 C48.6451841,652.115089 0,550.405098 0,487.048614 L0,55.5615228 C0,-7.79496124 48.6451841,0.339590533 108.645957,0.339590533 L108.645957,0.339590533 C168.646729,0.339590533 217.304527,-7.79183977 217.304527,55.5615228 L217.304527,487.048614 Z" id="Shape" fill="#F4F3EA"></path>
                    <g id="Group" transform="translate(2.664171, 0.000000)" fill="#DDDBCE">
                        <path d="M213.811495,49.3569608 C213.749408,48.2910034 213.66559,47.2563978 213.569356,46.2343328 C213.525895,45.6637321 213.473121,45.0962665 213.423451,44.5256658 C213.311694,43.5286822 213.162686,42.5787261 213.019886,41.6224996 C183.640313,30.442488 153.444297,16.7888284 125.172978,0.307246532 C119.280921,0.391896087 113.227438,0.485951148 107.049781,0.485951148 C98.1154602,0.485951148 89.4481139,0.297841026 81.156394,0.203785965 C90.6370801,6.60580044 100.580314,12.9231654 110.976784,19.0712312 C144.336133,38.7945774 179.992702,54.5770167 214.013278,67.0832046 L214.013278,55.9502206 C214.019486,53.7367915 213.935669,51.5421734 213.811495,49.3569608 Z" id="Shape"></path>
                        <path d="M214.019486,170.684854 L214.019486,145.60664 C183.46647,134.031597 151.982148,119.807337 122.686394,102.482394 C74.2399014,73.8394931 35.8142523,41.0268176 7.80059434,13.0172204 C4.6869309,21.3661747 2.44248557,30.1854042 1.21626717,39.362043 C29.2081946,66.0956265 65.7619205,95.9424324 110.979888,122.672881 C144.339238,142.399362 179.99891,158.181801 214.019486,170.684854 Z" id="Shape"></path>
                        <path d="M0.0987010293,108.759002 L0.0987010293,141.897735 C28.2303243,168.900943 65.1627808,199.183538 110.982993,226.277665 C144.342342,246.001012 179.99891,261.780316 214.019486,274.283369 L214.019486,249.208289 C183.46647,237.630111 151.982148,223.405851 122.686394,206.084044 C69.6175236,174.713546 28.5966376,138.351859 0.0987010293,108.759002 Z" id="Shape"></path>
                        <path d="M0.0987010293,212.363787 L0.0987010293,245.499385 C28.2303243,272.502593 65.1627808,302.788322 110.982993,329.879315 C144.342342,349.602661 179.99891,365.381965 214.019486,377.888153 L214.019486,352.809939 C183.46647,341.234896 151.982148,327.010636 122.686394,309.688829 C69.6175236,278.315196 28.5966376,241.953509 0.0987010293,212.363787 Z" id="Shape"></path>
                        <path d="M0.0987010293,315.968572 L0.0987010293,349.101034 C28.2303243,376.104242 65.1627808,406.389972 110.982993,433.480965 C144.342342,453.204311 179.99891,468.98675 214.019486,481.492938 L214.019486,456.411588 C183.46647,444.839681 151.982148,430.612285 122.686394,413.290478 C69.6175236,381.91998 28.5966376,345.558294 0.0987010293,315.968572 Z" id="Shape"></path>
                        <path d="M0.0987010293,419.570221 L0.0987010293,452.705819 C28.2303243,479.709027 65.1627808,509.991621 110.982993,537.082614 C137.407223,552.70516 165.265663,565.838381 192.618095,576.849094 C195.886976,569.738531 198.823691,562.446129 201.409615,555.103564 C174.876732,544.478477 147.968223,531.840612 122.689498,516.892128 C69.6175236,485.524765 28.5966376,449.159943 0.0987010293,419.570221 Z" id="Shape"></path>
                        <path d="M4.86387888,528.053328 C8.41215137,543.69155 13.8478689,559.881561 20.7891964,575.265834 C45.5960603,596.995688 75.6306503,619.7915 110.982993,640.690534 C116.791232,644.126679 122.683289,647.415471 128.612598,650.610208 C136.466605,647.318281 143.988446,642.302011 151.109826,636.044214 C141.480131,631.159621 131.97461,625.989728 122.689498,620.500048 C72.4983608,590.828811 33.0979457,556.699365 4.86387888,528.053328 Z" id="Shape"></path>
                    </g>
                </g>
                <path d="M389.016631,669.445204 C383.589617,677.796342 372.328561,680.194014 363.980004,674.77437 L197.099304,566.381484 C188.750746,560.943744 186.353815,549.679208 191.771785,541.32807 L211.489938,510.981681 C216.916952,502.639591 228.168963,500.23287 236.526565,505.661563 L403.39822,614.072544 C411.755823,619.501236 414.143709,630.756725 408.734784,639.125958 L389.016631,669.445204 Z" id="Shape" fill="#DDDBCE"></path>
                <path d="M262.31393,565.585276 C256.886915,573.954509 250.229777,584.558555 243.283198,596.36596 L325.402975,649.711908 C333.371641,638.555946 340.33631,628.132857 345.77237,619.772671 C351.208429,611.412485 357.856522,600.80844 364.803101,589.010082 L282.701415,535.664134 C274.714658,546.811049 267.731899,557.216042 262.31393,565.585276 Z" id="Shape" fill="#CAC8BA"></path>
                <path d="M212.26781,576.216465 C152.416884,668.395657 77.0537404,855.169809 116.851848,881.019432 C156.631865,906.869054 296.540302,762.058692 356.400273,669.83426 L212.26781,576.216465 Z" id="Shape" fill="#FFD464"></path>
                <path d="M227.436316,586.069541 C167.585389,678.248733 144.538667,769.559334 175.952037,789.962169 C207.374452,810.374051 281.371796,752.160376 341.222722,659.990232 L227.436316,586.069541 Z" id="Shape" fill="#F2B255"></path>
                <path d="M488.187444,789.131253 C479.201363,764.434568 436.67475,740.147359 436.67475,740.147359 C436.67475,740.147359 419.70471,786.096723 428.690645,810.79301 C434.670602,827.227885 452.836761,835.700862 469.265762,829.719346 C485.694764,823.73783 494.167401,805.566128 488.187444,789.131253 Z" id="Shape" fill="#910000" transform="translate(458.085517, 785.892542) rotate(-23.000000) translate(-458.085517, -785.892542) "></path>
                <path d="M364.643913,887.031313 C364.643913,860.749651 332.986116,823.377686 332.986116,823.377686 C332.986116,823.377686 301.328742,860.750074 301.328742,887.031313 C301.328742,904.520943 315.502314,918.698049 332.985692,918.698049 C350.46907,918.698049 364.643913,904.520943 364.643913,887.031313 Z" id="Shape" fill="#910000" transform="translate(332.986327, 871.037867) rotate(-16.000000) translate(-332.986327, -871.037867) "></path>
                <path d="M98.9738091,689.397799 C98.9738091,663.116136 67.3160121,625.744171 67.3160121,625.744171 C67.3160121,625.744171 35.6586384,663.11656 35.6586384,689.397799 C35.6586384,706.887428 49.8322107,721.064534 67.3155887,721.064534 C84.7989668,721.064534 98.9738091,706.887428 98.9738091,689.397799 Z" id="Shape" fill="#910000" transform="translate(67.316224, 673.404353) rotate(57.000000) translate(-67.316224, -673.404353) "></path>
                <path d="M83.5300407,582.630808 C83.5300407,556.349145 51.8722437,518.97718 51.8722437,518.97718 C51.8722437,518.97718 20.2148701,556.349569 20.2148701,582.630808 C20.2148701,600.120437 34.3884423,614.297543 51.8718204,614.297543 C69.3551984,614.297543 83.5300407,600.120437 83.5300407,582.630808 Z" id="Shape" fill="#910000" transform="translate(51.872455, 566.637362) rotate(83.000000) translate(-51.872455, -566.637362) "></path>
            </g>
            <g id="Group" transform="translate(141.000000, 832.000000)">
                <ellipse id="Oval" fill="#CCCCCC" transform="translate(66.249123, 58.854108) rotate(-157.882589) translate(-66.249123, -58.854108) " cx="66.2491232" cy="58.8541075" rx="54.1274167" ry="40.845525"></ellipse>
                <path d="M69.1705575,96.8416923 C41.4749362,85.5227692 25.8589361,59.3993846 34.3029431,38.4952308 C39.1293787,26.5318462 50.9022731,19.0343077 65.1921311,16.8013846 C43.1980189,13.6244615 23.0262244,21.7483077 16.2601931,38.4952308 C7.81618613,59.3993846 23.4321863,85.5227692 51.1278075,96.8416923 C62.9728729,101.679692 74.9983657,102.841538 85.6706524,101.189538 C80.1946777,100.390769 74.6645749,99.0927692 69.1705575,96.8416923 Z" id="Shape" fill="#B3B3B3"></path>
            </g>
            <g id="Group" transform="translate(310.000000, 885.000000)">
                <ellipse id="Oval" fill="#CCCCCC" transform="translate(44.224619, 44.403472) rotate(-134.493545) translate(-44.224619, -44.403472) " cx="44.2246194" cy="44.4034723" rx="35.816123" ry="26.7491654"></ellipse>
                <path d="M35.8641,67.5963241 C22.023,53.5549259 19.3658,33.7664352 29.9491,23.4053519 C35.9915,17.4678981 45.0915,16.053787 54.3644,18.4468981 C41.8428,10.7871296 27.4739,10.3610833 18.9927,18.6553889 C8.4094,29.0346019 11.0666,48.804963 24.9168,62.8554259 C30.8409,68.8653981 37.857,72.7270093 44.773,74.503713 C41.6426,72.6272963 38.6214,70.3973519 35.8641,67.5963241 Z" id="Shape" fill="#B3B3B3"></path>
            </g>
            <g id="Group" transform="translate(271.000000, 976.000000)">
                <ellipse id="Oval" fill="#CCCCCC" transform="translate(63.247558, 54.071824) rotate(-164.229315) translate(-63.247558, -54.071824) " cx="63.2475583" cy="54.071824" rx="53.6895224" ry="40.5218444"></ellipse>
                <path d="M70.4252042,91.1577484 C41.9174083,83.0464979 23.69185,59.0024341 29.7550417,37.4659778 C33.19145,25.1361529 43.98645,16.4817383 57.8310375,12.6976951 C35.8182333,11.9915818 16.7920458,22.2030668 11.9432917,39.4575794 C5.88909583,60.984983 24.12365,85.0380996 52.6494375,93.1402973 C64.8477875,96.6165475 76.8302375,96.4264401 87.1844417,93.629145 C81.7239708,93.4480903 76.101575,92.7781879 70.4252042,91.1577484 Z" id="Shape" fill="#B3B3B3"></path>
            </g>
            <path d="M254.5,208 C254.5,244.4 245.4,253.5 209,253.5 C245.4,253.5 254.5,262.6 254.5,299 C254.5,262.6 263.6,253.5 300,253.5 C263.6,253.5 254.5,244.4 254.5,208 Z" id="Shape" fill="#FFD464"></path>
            <path d="M136.5,469 C136.5,505.4 127.4,514.5 91,514.5 C127.4,514.5 136.5,523.6 136.5,560 C136.5,523.6 145.6,514.5 182,514.5 C145.6,514.5 136.5,505.4 136.5,469 Z" id="Shape" fill="#FFD464"></path>
            <path d="M743.5,931 C743.5,967.4 734.4,976.5 698,976.5 C734.4,976.5 743.5,985.6 743.5,1022 C743.5,985.6 752.6,976.5 789,976.5 C752.6,976.5 743.5,967.4 743.5,931 Z" id="Shape" fill="#FFD464"></path>
            <path d="M1069.5,722 C1069.5,758.4 1060.4,767.5 1024,767.5 C1060.4,767.5 1069.5,776.6 1069.5,813 C1069.5,776.6 1078.6,767.5 1115,767.5 C1078.6,767.5 1069.5,758.4 1069.5,722 Z" id="Shape" fill="#FFD464"></path>
            <path d="M1043.5,405 C1043.5,441.4 1034.4,450.5 998,450.5 C1034.4,450.5 1043.5,459.6 1043.5,496 C1043.5,459.6 1052.6,450.5 1089,450.5 C1052.6,450.5 1043.5,441.4 1043.5,405 Z" id="Shape" fill="#FFD464"></path>
            <path d="M589.5,80 C589.5,116.4 580.4,125.5 544,125.5 C580.4,125.5 589.5,134.6 589.5,171 C589.5,134.6 598.6,125.5 635,125.5 C598.6,125.5 589.5,116.4 589.5,80 Z" id="Shape" fill="#FFD464"></path>
            <path d="M434.5,269 C434.5,305.4 425.4,314.5 389,314.5 C425.4,314.5 434.5,323.6 434.5,360 C434.5,323.6 443.6,314.5 480,314.5 C443.6,314.5 434.5,305.4 434.5,269 Z" id="Shape" fill="#FFD464"></path>
        </g>
    </g>
</svg>